<?xml version="1.0" encoding="utf-8"?>
<!-- Generator: Adobe Illustrator 16.0.0, SVG Export Plug-In . SVG Version: 6.00 Build 0)  -->
<!DOCTYPE svg PUBLIC "-//W3C//DTD SVG 1.1//EN" "http://www.w3.org/Graphics/SVG/1.1/DTD/svg11.dtd">
<svg version="1.1" id="Layer_1" xmlns="http://www.w3.org/2000/svg" xmlns:xlink="http://www.w3.org/1999/xlink" x="0px" y="0px"
	 width="32px" height="32px" viewBox="0 0 32 32" enable-background="new 0 0 32 32" xml:space="preserve">
<g>
	<path fill="#00B8B0" d="M21.893,3.386L18.619,3.38c-3.677,0-6.053,2.438-6.053,6.211v2.864H9.275c-0.285,0-0.515,0.23-0.515,0.515
		v4.15c0,0.284,0.23,0.514,0.515,0.514h3.291v10.472c0,0.283,0.23,0.514,0.515,0.514h4.294c0.283,0,0.514-0.23,0.514-0.514V17.635
		h3.848c0.285,0,0.516-0.229,0.516-0.514l0.002-4.15c0-0.137-0.055-0.268-0.15-0.364c-0.098-0.097-0.229-0.151-0.365-0.151h-3.85
		v-2.428c0-1.167,0.279-1.759,1.799-1.759l2.205-0.001c0.283,0,0.514-0.23,0.514-0.515V3.9C22.406,3.617,22.176,3.386,21.893,3.386z
		"/>
</g>
</svg>
