<?xml version="1.0" encoding="utf-8"?>
<!-- Generator: Adobe Illustrator 16.0.0, SVG Export Plug-In . SVG Version: 6.00 Build 0)  -->
<!DOCTYPE svg PUBLIC "-//W3C//DTD SVG 1.1//EN" "http://www.w3.org/Graphics/SVG/1.1/DTD/svg11.dtd">
<svg version="1.1" id="Layer_1" xmlns="http://www.w3.org/2000/svg" xmlns:xlink="http://www.w3.org/1999/xlink" x="0px" y="0px"
	 width="32px" height="32px" viewBox="0 0 32 32" enable-background="new 0 0 32 32" xml:space="preserve">
<path fill="#00B8B0" d="M9.455,28.292H3.868V11.53h5.587V28.292z M6.662,9.295c-1.545,0-2.794-1.252-2.794-2.794
	c0-1.542,1.251-2.792,2.794-2.792c1.54,0,2.792,1.253,2.792,2.792C9.455,8.042,8.202,9.295,6.662,9.295z M29.567,28.292h-5.371
	v-8.158c0-1.944-0.035-4.447-2.793-4.447c-2.796,0-3.227,2.12-3.227,4.308v8.298h-5.37V11.518h5.155v2.292h0.074
	c0.717-1.318,2.47-2.708,5.086-2.708c5.44,0,6.445,3.474,6.445,7.99V28.292z"/>
</svg>
