<?xml version="1.0" encoding="utf-8"?>
<!-- Generator: Adobe Illustrator 16.0.0, SVG Export Plug-In . SVG Version: 6.00 Build 0)  -->
<!DOCTYPE svg PUBLIC "-//W3C//DTD SVG 1.1//EN" "http://www.w3.org/Graphics/SVG/1.1/DTD/svg11.dtd">
<svg version="1.1" id="Layer_1" xmlns="http://www.w3.org/2000/svg" xmlns:xlink="http://www.w3.org/1999/xlink" x="0px" y="0px"
	 width="120px" height="99.484px" viewBox="0 0 120 99.484" enable-background="new 0 0 120 99.484" xml:space="preserve">
<path fill="#FFFDFE" d="M97.213,36.833c0-20.05-16.847-36.268-37.587-36.268S22.039,16.783,22.039,36.833
	c0,5.675,1.423,11.018,3.844,15.836h-0.049l0.144,0.147c5.172,10.991,33.647,46.667,33.647,46.667s27.141-33.312,33.647-46.62
	l0.144-0.194h-0.051C95.79,47.851,97.213,42.508,97.213,36.833z M59.626,51.728c-7.879,0-14.238-7.376-14.238-16.501
	c0-9.079,6.359-16.457,14.238-16.457s14.237,7.378,14.237,16.457C73.863,44.352,67.505,51.728,59.626,51.728z"/>
</svg>
