<?xml version="1.0" encoding="utf-8"?>
<!-- Generator: Adobe Illustrator 16.0.0, SVG Export Plug-In . SVG Version: 6.00 Build 0)  -->
<!DOCTYPE svg PUBLIC "-//W3C//DTD SVG 1.1//EN" "http://www.w3.org/Graphics/SVG/1.1/DTD/svg11.dtd">
<svg version="1.1" id="Layer_1" xmlns="http://www.w3.org/2000/svg" xmlns:xlink="http://www.w3.org/1999/xlink" x="0px" y="0px"
	 width="32px" height="32px" viewBox="0 0 32 32" enable-background="new 0 0 32 32" xml:space="preserve">
<path fill="#00B8B0" d="M31.759,7.121c-1.139,0.493-2.287,0.859-3.554,0.978c1.267-0.731,2.287-1.964,2.788-3.308
	c-1.267,0.731-2.533,1.225-3.929,1.471c-1.275-1.225-2.924-1.964-4.702-1.964c-3.427,0-6.225,2.704-6.225,6.021
	c0,0.484,0,0.978,0.127,1.352c-6.548,0-11.038-3.69-14.082-7.373C1.544,5.157,1.29,6.262,1.29,7.367
	c0,2.083,1.148,3.929,2.798,5.035c-1.021-0.119-2.032-0.366-2.798-0.731c0,0,0,0,0,0.119c0,2.951,2.161,5.4,4.958,5.893
	c-0.51,0.118-1.02,0.247-1.659,0.247c-0.374,0-0.757,0-1.139-0.119c0.765,2.458,4.311,5.28,7.1,5.28
	c-2.159,1.59-4.166,2.977-8.18,2.977c-0.51,0-0.103,0-1.089,0c2.789,1.718,6.097,2.178,9.524,2.178
	c11.557,0,17.782-9.211,17.782-17.195c0-0.247,0-0.485,0-0.731C29.854,9.451,30.875,8.354,31.759,7.121"/>
</svg>
